<?xml version="1.0" encoding="utf-8"?>
<?xml-stylesheet type="text/xsl" href="rss1.xsl"?>
<rss version="2.0" xmlns:atom="http://www.w3.org/2005/Atom" xmlns:content="http://purl.org/rss/1.0/modules/content/" xmlns:dc="http://purl.org/dc/elements/1.1/" xmlns:media="http://search.yahoo.com/mrss/">
<channel>
 <title>Getty</title>
 <link>http://www.gettyimg.com/</link>
 <atom:link href="http://www.gettyimg.com/" rel="self" type="application/rss+xml" />

 
                <item>
                <title><![CDATA[【Apple Music】WEB-RiP - Elena - Trandafiri (1080p)]]></title>
                <link><![CDATA[https://sharemania.us/threads/elena-trandafiri-1080p.250278/]]></link>
                <description><![CDATA[<article>
<blockquote class="messageText SelectQuoteContainer ugc baseHtml">
<img src="https://i.postimg.cc/fyrcMvRc/Elena-Trandafiri-mp4.jpg" class="bbCodeImage LbImage" alt="[​IMG]" data-url="https://i.postimg.cc/fyrcMvRc/Elena-Trandafiri-mp4.jpg" style=""><br>
<br>
<div class="bbCodeBlock bbCodeCode">
<div class="type">Code:</div>
<pre>General
Complete name                  : G:\Новая папка\Elena - Trandafiri.mp4
Format                         : MPEG-4
Format profile                 : Base Media
Codec ID                       : isom (isom/iso2/avc1/mp41)
File size                      : 149 MiB
Duration                       : 3 min 8 s
Overall bit rate               : 6 634 kb/s
Frame rate                     : 24.000 FPS
Movie name                     : Trandafiri
Performer                      : Elena
Genre                          : Pop
ContentType                    : Music Video
Recorded date                  : 2021-10-27 07:00:00 UTC
Writing application            : Lavf56.30.100
Copyright                      : ℗ 2021 Cat Music

Video
ID                             : 1
Format                         : AVC
Format/Info                    : Advanced Video Codec
Format profile                 : High@L4
Format settings                : CABAC / 4 Ref Frames
Format settings, CABAC         : Yes
Format settings, Reference fra : 4 frames
Format settings, Slice count   : 8 slices per frame
Codec ID                       : avc1
Codec ID/Info                  : Advanced Video Coding
Duration                       : 3 min 7 s
Bit rate                       : 6 371 kb/s
Width                          : 1 920 pixels
Height                         : 1 080 pixels
Display aspect ratio           : 16:9
Frame rate mode                : Constant
Frame rate                     : 24.000 FPS
Color space                    : YUV
Chroma subsampling             : 4:2:0
Bit depth                      : 8 bits
Scan type                      : Progressive
Bits/(Pixel*Frame)             : 0.128
Stream size                    : 143 MiB (96%)
Color range                    : Limited
Color primaries                : BT.709
Transfer characteristics       : BT.709
Matrix coefficients            : BT.709
Codec configuration box        : avcC

Audio
ID                             : 2
Format                         : AAC LC
Format/Info                    : Advanced Audio Codec Low Complexity
Codec ID                       : mp4a-40-2
Duration                       : 3 min 8 s
Duration_LastFrame             : -20 ms
Bit rate mode                  : Constant
Bit rate                       : 265 kb/s
Channel(s)                     : 2 channels
Channel layout                 : L R
Sampling rate                  : 48.0 kHz
Frame rate                     : 46.875 FPS (1024 SPF)
Compression mode               : Lossy
Stream size                    : 5.82 MiB (4%)
Default                        : Yes
Alternate group                : 1

</pre>
</div>
<div class="bbCodeBlock bbCodeVfcHH HiddenContent">
<div class="attribution type">Hidden Content:</div>
<blockquote>You must either reply or click 'Like' to see the hidden information contained here.</blockquote>
</div>
<div class="messageTextEndMarker">&nbsp;</div>
</blockquote>
</article>]]></description>
                <author><![CDATA[vitalya3]]></author>
                </item>

                
                <item>
                <title><![CDATA[【PRORES HD】Taylor Swift - Delicate MASTER (ProRes) (Re-upload)]]></title>
                <link><![CDATA[https://sharemania.us/threads/taylor-swift-delicate-master-prores-re-upload.250280/]]></link>
                <description><![CDATA[<article>
<blockquote class="messageText SelectQuoteContainer ugc baseHtml">
thanks
<div class="messageTextEndMarker">&nbsp;</div>
</blockquote>
</article>]]></description>
                <author><![CDATA[sebastianswif13]]></author>
                </item>

                
                <item>
                <title><![CDATA[【Requests】[REQ AUD] - SING (Motion Pictures Soundtracks) FLAC]]></title>
                <link><![CDATA[https://sharemania.us/threads/sing-motion-pictures-soundtracks-flac.250282/]]></link>
                <description><![CDATA[<article>
<blockquote class="messageText SelectQuoteContainer ugc baseHtml">
<div style="text-align: center"><img src="https://i.imgur.com/DnUICTH.jpeg" class="bbCodeImage LbImage" alt="[​IMG]" data-url="https://i.imgur.com/DnUICTH.jpeg" style=""> <br>
<br>
<img src="https://i.imgur.com/eqnm07a.jpeg" class="bbCodeImage LbImage" alt="[​IMG]" data-url="https://i.imgur.com/eqnm07a.jpeg" style=""> <br>
​</div>
<div class="ToggleTriggerAnchor bbCodeSpoilerContainer">
<button type="button" class="button bbCodeSpoilerButton ToggleTrigger Tooltip JsOnly" data-target="> .SpoilerTarget"><span>Spoiler: <span class="SpoilerTitle">Media Info</span></span></button>
<div class="SpoilerTarget bbCodeSpoilerText">General<br>
Complete name : C:\Users\danie\Downloads\Taylor Swift - Delicate (ProRes).mov<br>
Format : MPEG-4<br>
Format profile : QuickTime<br>
Codec ID : qt 2005.03 (qt )<br>
File size : 4.80 GiB<br>
Duration : 4 min 0 s<br>
Overall bit rate mode : Variable<br>
Overall bit rate : 172 Mb/s<br>
Frame rate : 23.976 FPS<br>
Encoded date : 2018-03-12 15:26:40 UTC<br>
Tagged date : 2018-03-12 15:31:55 UTC<br>
Writing library : Apple QuickTime<br>
Video<br>
ID : 1<br>
Format : ProRes<br>
Format version : Version 0<br>
Format profile : 422 HQ<br>
Codec ID : apch<br>
Duration : 4 min 0 s<br>
Bit rate mode : Variable<br>
Bit rate : 169 Mb/s<br>
Width : 1 920 pixels<br>
Height : 1 080 pixels<br>
Display aspect ratio : 16:9<br>
Frame rate mode : Constant<br>
Frame rate : 23.976 (24000/1001) FPS<br>
Color space : YUV<br>
Chroma subsampling : 4:2:2<br>
Scan type : Progressive<br>
Bits/(Pixel*Frame) : 3.405<br>
Stream size : 4.74 GiB (99%)<br>
Writing library : arh0<br>
Language : English<br>
Encoded date : 2018-03-12 15:26:42 UTC<br>
Tagged date : 2018-03-12 15:31:55 UTC<br>
Color primaries : BT.709<br>
Transfer characteristics : BT.709<br>
Matrix coefficients : BT.709<br>
Audio<br>
ID : 2<br>
Format : PCM<br>
Format settings : Little / Signed<br>
Codec ID : in24<br>
Duration : 4 min 0 s<br>
Bit rate mode : Constant<br>
Bit rate : 2 304 kb/s<br>
Channel(s) : 2 channels<br>
Channel layout : L R<br>
Sampling rate : 48.0 kHz<br>
Bit depth : 24 bits<br>
Stream size : 66.0 MiB (1%)<br>
Language : English<br>
Encoded date : 2018-03-12 15:26:42 UTC<br>
Tagged date : 2018-03-12 15:31:56 UTC</div>
</div><div style="text-align: center">
<div class="ToggleTriggerAnchor bbCodeSpoilerContainer">
<button type="button" class="button bbCodeSpoilerButton ToggleTrigger Tooltip JsOnly" data-target="> .SpoilerTarget"><span>Spoiler: <span class="SpoilerTitle">Screenshots</span></span></button>
<div class="SpoilerTarget bbCodeSpoilerText"><img src="https://i.imgur.com/loZGRbQ.jpeg" class="bbCodeImage LbImage" alt="[​IMG]" data-url="https://i.imgur.com/loZGRbQ.jpeg" style=""> <br>
<img src="https://i.imgur.com/CSu868n.jpeg" class="bbCodeImage LbImage" alt="[​IMG]" data-url="https://i.imgur.com/CSu868n.jpeg" style=""> <br>
<img src="https://i.imgur.com/FJ26OgQ.jpeg" class="bbCodeImage LbImage" alt="[​IMG]" data-url="https://i.imgur.com/FJ26OgQ.jpeg" style=""> <br>
<img src="https://i.imgur.com/vVnwiBp.jpeg" class="bbCodeImage LbImage" alt="[​IMG]" data-url="https://i.imgur.com/vVnwiBp.jpeg" style=""> <br>
<img src="https://i.imgur.com/pP11X8p.jpeg" class="bbCodeImage LbImage" alt="[​IMG]" data-url="https://i.imgur.com/pP11X8p.jpeg" style=""></div>
</div><br>
<b><span style="color: #ff0000">PASSWORD: sharemania.us</span></b><br>
<br>
<b>Download ProRes (Google Drive)<br>
<div class="bbCodeBlock bbCodeVfcHH HiddenContent">
<div class="attribution type">Hidden Content:</div>
<blockquote>You must reply before you can see the hidden data contained here.</blockquote>
</div></b><br>
<br>
<b><b><b><b>If any link is down, please inform me by means of the replys; Thank you - Sebastian Swift<br>
Please do not type random letters when making a reply</b></b></b><br>
<br>
<b><b>You can place an order in my profile, if I have it in my personal collection I can post it!</b></b></b><br>
<b><b><b><br>
<img src="https://64.media.tumblr.com/4c060f7d86db8155f8b614617a048123/bcfa1443b86d247b-72/s540x810/4fd5b588b7016a5e674cbf8f1e26b574922f1352.gifv" class="bbCodeImage LbImage" alt="[​IMG]" data-url="https://64.media.tumblr.com/4c060f7d86db8155f8b614617a048123/bcfa1443b86d247b-72/s540x810/4fd5b588b7016a5e674cbf8f1e26b574922f1352.gifv" style=""> </b></b></b>​</div>
<div class="messageTextEndMarker">&nbsp;</div>
</blockquote>
</article>]]></description>
                <author><![CDATA[Share Mania US]]></author>
                </item>

                
                <item>
                <title><![CDATA[【Singles (lossy)】360 RA - Madison Beer - 15 MINUTES (Tidal Sony 360 Reality Audio | MPEG-H 3D Audio 16bit 48.0 kHz| WAV Decoded | 12 channels)]]></title>
                <link><![CDATA[https://sharemania.us/threads/madison-beer-15-minutes-tidal-sony-360-reality-audio-mpeg-h-3d-audio-16bit-48-0-khz-wav-decoded-12-channels.250279/]]></link>
                <description><![CDATA[<article>
<blockquote class="messageText SelectQuoteContainer ugc baseHtml">
thank you
<div class="messageTextEndMarker">&nbsp;</div>
</blockquote>
</article>]]></description>
                <author><![CDATA[stargamer]]></author>
                </item>

                
                <item>
                <title><![CDATA[【Singles (lossy)】iTunes Plus - Madison Beer - 15 MINUTES [iTunes M4A / AAC-LC 256 kbps]]]></title>
                <link><![CDATA[https://sharemania.us/threads/madison-beer-15-minutes-itunes-m4a-aac-lc-256-kbps.250277/]]></link>
                <description><![CDATA[<article>
<blockquote class="messageText SelectQuoteContainer ugc baseHtml">
thanks a lot
<div class="messageTextEndMarker">&nbsp;</div>
</blockquote>
</article>]]></description>
                <author><![CDATA[stargamer]]></author>
                </item>

                
                <item>
                <title><![CDATA[【Requests】[REQ AUD] - Helena Paparizou - Party All The Time (EP)]]></title>
                <link><![CDATA[https://sharemania.us/threads/helena-paparizou-party-all-the-time-ep.250281/]]></link>
                <description><![CDATA[<article>
<blockquote class="messageText SelectQuoteContainer ugc baseHtml">
hello there yall, can anyone who has the good heart to share this album with me, and for everyone? thanks xx<br>
<br>
<a href="https://www.prostudiomasters.com/album/page/11141" target="_blank" class="externalLink" rel="nofollow">https://www.prostudiomasters.com/album/page/11141</a>
<div class="messageTextEndMarker">&nbsp;</div>
</blockquote>
</article>]]></description>
                <author><![CDATA[Raider_Jake]]></author>
                </item>

                </channel></rss>